HIERARCHY
ROOT root
{
	OFFSET	0	13.1	24.9
	CHANNELS 6  Xposition Yposition Zposition Xrotation Yrotation Zrotation
	JOINT spine_1
	{
		OFFSET	0	9.99999	0
		CHANNELS 3  Xrotation Yrotation Zrotation
		JOINT spine_2
		{
			OFFSET	0	112	-10
			CHANNELS 3  Xrotation Yrotation Zrotation
			JOINT spine_3
			{
				OFFSET	0	206.5	19.3
				CHANNELS 3  Xrotation Yrotation Zrotation
				JOINT spine_4
				{
					OFFSET	0	110.4	14.6
					CHANNELS 3  Xrotation Yrotation Zrotation
					JOINT neck_1
					{
						OFFSET	0	71.8	-50.3
						CHANNELS 3  Xrotation Yrotation Zrotation
						JOINT neck_2
						{
							OFFSET	0	86.2	-25.8
							CHANNELS 3  Xrotation Yrotation Zrotation
							JOINT head_ee
							{
								OFFSET	0	179.8	-8.7
								CHANNELS 3  Xrotation Yrotation Zrotation
								End Site
								{
									OFFSET	1	0	0
								}
							}
						}
					}
					JOINT left_clavicle
					{
						OFFSET	-43.2	22.4	-70.8
						CHANNELS 3  Xrotation Yrotation Zrotation
						JOINT left_shoulder
						{
							OFFSET	-93.9	-5.79999	48.7
							CHANNELS 3  Xrotation Yrotation Zrotation
							JOINT left_elbow
							{
								OFFSET	-291.4	-30.8	15.2
								CHANNELS 3  Xrotation Yrotation Zrotation
								JOINT left_lowarm_twist
								{
									OFFSET	-110.7	-3.89999	13.6
									CHANNELS 3  Xrotation Yrotation Zrotation
									JOINT left_hand
									{
										OFFSET	-110.7	-3.89999	13.6
										CHANNELS 3  Xrotation Yrotation Zrotation
										JOINT left_ee
										{
											OFFSET	-80.8	-5.10001	12.1
											CHANNELS 3  Xrotation Yrotation Zrotation
											End Site
											{
												OFFSET	1	0	0
											}
										}
									}
								}
							}
						}
					}
					JOINT right_clavicle
					{
						OFFSET	43.2	22.4	-70.8
						CHANNELS 3  Xrotation Yrotation Zrotation
						JOINT right_shoulder
						{
							OFFSET	93.9	-5.79999	48.7
							CHANNELS 3  Xrotation Yrotation Zrotation
							JOINT right_elbow
							{
								OFFSET	291.4	-30.8	15.2
								CHANNELS 3  Xrotation Yrotation Zrotation
								JOINT right_lowarm_twist
								{
									OFFSET	110.7	-3.89999	13.6
									CHANNELS 3  Xrotation Yrotation Zrotation
									JOINT right_hand
									{
										OFFSET	110.7	-3.89999	13.6
										CHANNELS 3  Xrotation Yrotation Zrotation
										JOINT right_ee
										{
											OFFSET	80.8	-5.10001	12.1
											CHANNELS 3  Xrotation Yrotation Zrotation
											End Site
											{
												OFFSET	1	0	0
											}
										}
									}
								}
							}
						}
					}
				}
			}
		}
	}
	JOINT left_hip
	{
		OFFSET	-82.8	-127.5	0.300001
		CHANNELS 3  Xrotation Yrotation Zrotation
		JOINT left_knee
		{
			OFFSET	-28.2	-396.7	2.2
			CHANNELS 3  Xrotation Yrotation Zrotation
			JOINT left_ankle
			{
				OFFSET	-11.7	-411.3	35.4
				CHANNELS 3  Xrotation Yrotation Zrotation
				JOINT left_toes
				{
					OFFSET	0	-60	-88.6
					CHANNELS 3  Xrotation Yrotation Zrotation
					JOINT left_foot_ee
					{
						OFFSET	-22.5	-16.5	-42.2
						CHANNELS 3  Xrotation Yrotation Zrotation
						End Site
						{
							OFFSET	1	0	0
						}
					}
				}
			}
		}
	}
	JOINT right_hip
	{
		OFFSET	82.8	-127.5	0.300001
		CHANNELS 3  Xrotation Yrotation Zrotation
		JOINT right_knee
		{
			OFFSET	28.2	-396.7	2.2
			CHANNELS 3  Xrotation Yrotation Zrotation
			JOINT right_ankle
			{
				OFFSET	11.7	-411.3	35.4
				CHANNELS 3  Xrotation Yrotation Zrotation
				JOINT right_toes
				{
					OFFSET	0	-60	-88.6
					CHANNELS 3  Xrotation Yrotation Zrotation
					JOINT right_foot_ee
					{
						OFFSET	22.5	-16.5	-42.2
						CHANNELS 3  Xrotation Yrotation Zrotation
						End Site
						{
							OFFSET	1	0	0
						}
					}
				}
			}
		}
	}
}
MOTION
Frames: 13
Frame Time: 0.02
2800.94 716.97 -1473.77 5.15831180264 63.5994425551 -9.98493711371 -0.0263324 0.488937 3.18347 -0.0207401 0.285481 3.2081 -0.001755 -0.395519 3.19641 -0.0159931 0.113987 3.21875 -24.071 12.3694 4.72772 -24.9545 21.7941 10.6447 -0.0 0.0 -0.0 -4.20067 19.7702 -3.91308 13.1494 -18.0206 64.6294 3.80961 -62.0643 2.29249 -9.47913 -0.428769 1.13212 2.16297 -15.2626 8.04037 -0.0 0.0 -0.0 10.4568 19.1857 -20.4849 -19.832 25.3918 -65.3494 0.275395 7.76867 -0.018699 61.8842 1.94452 7.27898 0.319916 -26.4977 -12.2782 0.0 0.0 0.0 -17.9638 32.0739 11.3979 -26.9053 0.150104 4.0884 38.2309 -4.78892 -4.77288 -18.734 0.0 0.0 -0.0 0.0 -0.0 39.71 33.3865 -15.4804 -13.9814 -0.318776 -2.11663 30.5732 -17.5522 4.02911 -16.1022 0.0 0.0 0.0 0.0 0.0 
2765.31849873 726.887 -1481.67037948 7.49367101317 67.2910121334 -11.4905592536 -0.188277 0.605711 3.11841 -0.182959 0.406153 3.15059 -0.157315 -0.273856 3.16482 -0.171217 0.229147 3.16836 -23.4809 12.4685 3.44419 -24.4297 22.5096 9.40202 -0.0 0.0 -0.0 -3.89027 21.7535 -3.00676 12.5943 -18.8364 67.0039 2.95112 -55.6151 1.5567 -10.7721 -0.501611 1.28062 2.17218 -15.5667 7.9632 -0.0 0.0 -0.0 11.0162 21.5256 -21.5749 -16.1467 24.3519 -66.0371 0.338794 9.52728 -0.0282329 63.1506 2.0623 7.39076 0.3778 -29.3655 -13.5468 0.0 0.0 0.0 -16.8809 30.9295 7.46925 -27.7753 0.122828 4.21912 35.5429 -6.53681 -4.55029 -19.8934 0.0 0.0 -0.0 0.0 -0.0 38.4709 35.3184 -15.5004 -16.4746 -0.320955 -2.49912 31.7682 -16.5973 4.14514 -15.0177 0.0 0.0 0.0 0.0 0.0 
2765.53076457 726.887 -1482.57303328 7.06783853122 65.8465982957 -11.026493281 -0.188277 0.605711 3.11841 -0.182959 0.406153 3.15059 -0.157315 -0.273856 3.16482 -0.171217 0.229147 3.16836 -23.4809 12.4685 3.44419 -24.4297 22.5096 9.40202 -0.0 0.0 -0.0 -3.89027 21.7535 -3.00676 12.5943 -18.8364 67.0039 2.95112 -55.6151 1.5567 -10.7721 -0.501611 1.28062 2.17218 -15.5667 7.9632 -0.0 0.0 -0.0 11.0162 21.5256 -21.5749 -16.1467 24.3519 -66.0371 0.338794 9.52728 -0.0282329 63.1506 2.0623 7.39076 0.3778 -29.3655 -13.5468 0.0 0.0 0.0 -16.8809 30.9295 7.46925 -27.7753 0.122828 4.21912 35.5429 -6.53681 -4.55029 -19.8934 0.0 0.0 -0.0 0.0 -0.0 38.4709 35.3184 -15.5004 -16.4746 -0.320955 -2.49912 31.7682 -16.5973 4.14514 -15.0177 0.0 0.0 0.0 0.0 0.0 
2765.65044545 726.887 -1483.04117515 6.86615774655 65.0934267588 -10.8048085412 -0.188277 0.605711 3.11841 -0.182959 0.406153 3.15059 -0.157315 -0.273856 3.16482 -0.171217 0.229147 3.16836 -23.4809 12.4685 3.44419 -24.4297 22.5096 9.40202 -0.0 0.0 -0.0 -3.89027 21.7535 -3.00676 12.5943 -18.8364 67.0039 2.95112 -55.6151 1.5567 -10.7721 -0.501611 1.28062 2.17218 -15.5667 7.9632 -0.0 0.0 -0.0 11.0162 21.5256 -21.5749 -16.1467 24.3519 -66.0371 0.338794 9.52728 -0.0282329 63.1506 2.0623 7.39076 0.3778 -29.3655 -13.5468 0.0 0.0 0.0 -16.8809 30.9295 7.46925 -27.7753 0.122828 4.21912 35.5429 -6.53681 -4.55029 -19.8934 0.0 0.0 -0.0 0.0 -0.0 38.4709 35.3184 -15.5004 -16.4746 -0.320955 -2.49912 31.7682 -16.5973 4.14514 -15.0177 0.0 0.0 0.0 0.0 0.0 
2724.08152996 727.819 -1493.53109015 6.64613390034 68.7902997527 -11.0723862506 -0.311487 0.688516 3.03389 -0.306502 0.49416 3.0715 -0.276553 -0.177354 3.10591 -0.289875 0.315151 3.09497 -23.0766 12.5047 2.69372 -24.0513 22.8949 8.64824 -0.0 0.0 -0.0 -4.24926 22.8632 -3.26083 10.5167 -18.9778 68.1689 2.44849 -50.4879 1.1546 -11.4059 -0.538537 1.35281 2.17567 -15.4862 8.02369 -0.0 0.0 -0.0 11.5406 22.9545 -22.6436 -13.7867 24.031 -66.4769 0.373623 10.486 -0.0342851 63.7594 2.11981 7.44358 0.452286 -29.7681 -14.0857 0.0 0.0 0.0 -16.7086 30.2729 6.14962 -28.3491 0.103749 4.30512 33.4609 -7.32758 -4.35888 -20.6249 0.0 0.0 -0.0 0.0 -0.0 36.7649 36.9159 -13.9549 -18.5751 -0.309874 -2.8212 32.3555 -16.4994 4.20621 -14.5356 0.0 0.0 0.0 0.0 0.0 
2700.78733069 731.617 -1498.99678679 7.23148269625 68.7302304016 -12.1085239179 -0.391127 0.930833 3.03108 -0.386317 0.736166 3.0841 -0.342782 0.0529893 3.17022 -0.35638 0.552755 3.12216 -21.5534 12.558 1.59137 -22.4926 23.4533 7.31824 -0.0 0.0 -0.0 -4.50383 23.6541 -3.42537 9.35569 -19.0724 68.4021 2.26948 -48.3404 1.01863 -11.7281 -0.557618 1.38936 2.21877 -15.4267 8.34252 -0.0 0.0 -0.0 12.0351 24.0458 -23.6693 -13.0122 23.6342 -66.6923 0.4011 11.2381 -0.039463 63.9429 2.13725 7.45938 0.529299 -29.1798 -14.3282 0.0 0.0 0.0 -14.703 30.3078 5.06618 -29.3022 0.0701624 4.44752 31.7528 -7.40631 -4.18492 -21.2236 0.0 0.0 -0.0 0.0 -0.0 34.2413 37.6229 -12.4141 -18.499 -0.310482 -2.80954 32.6101 -16.2255 4.22933 -14.3732 0.0 0.0 0.0 0.0 0.0 
2700.8977062 731.617 -1499.4310092 7.15205571381 68.4836373098 -12.0232196546 -0.391127 0.930833 3.03108 -0.386317 0.736166 3.0841 -0.342782 0.0529893 3.17022 -0.35638 0.552755 3.12216 -21.5534 12.558 1.59137 -22.4926 23.4533 7.31824 -0.0 0.0 -0.0 -4.50383 23.6541 -3.42537 9.35569 -19.0724 68.4021 2.26948 -48.3404 1.01863 -11.7281 -0.557618 1.38936 2.21877 -15.4267 8.34252 -0.0 0.0 -0.0 12.0351 24.0458 -23.6693 -13.0122 23.6342 -66.6923 0.4011 11.2381 -0.039463 63.9429 2.13725 7.45938 0.529299 -29.1798 -14.3282 0.0 0.0 0.0 -14.703 30.3078 5.06618 -29.3022 0.0701624 4.44752 31.7528 -7.40631 -4.18492 -21.2236 0.0 0.0 -0.0 0.0 -0.0 34.2413 37.6229 -12.4141 -18.499 -0.310482 -2.80954 32.6101 -16.2255 4.22933 -14.3732 0.0 0.0 0.0 0.0 0.0 
2701.00743514 731.617 -1499.85506127 7.07619004113 68.2425138338 -11.9416033926 -0.391127 0.930833 3.03108 -0.386317 0.736166 3.0841 -0.342782 0.0529893 3.17022 -0.35638 0.552755 3.12216 -21.5534 12.558 1.59137 -22.4926 23.4533 7.31824 -0.0 0.0 -0.0 -4.50383 23.6541 -3.42537 9.35569 -19.0724 68.4021 2.26948 -48.3404 1.01863 -11.7281 -0.557618 1.38936 2.21877 -15.4267 8.34252 -0.0 0.0 -0.0 12.0351 24.0458 -23.6693 -13.0122 23.6342 -66.6923 0.4011 11.2381 -0.039463 63.9429 2.13725 7.45938 0.529299 -29.1798 -14.3282 0.0 0.0 0.0 -14.703 30.3078 5.06618 -29.3022 0.0701624 4.44752 31.7528 -7.40631 -4.18492 -21.2236 0.0 0.0 -0.0 0.0 -0.0 34.2413 37.6229 -12.4141 -18.499 -0.310482 -2.80954 32.6101 -16.2255 4.22933 -14.3732 0.0 0.0 0.0 0.0 0.0 
2677.40974088 733.436 -1499.88765884 7.93780281318 68.8200620228 -13.4074652507 -0.557815 0.968331 3.06448 -0.552921 0.771466 3.11981 -0.506621 0.0706038 3.21292 -0.520561 0.576881 3.16154 -20.3836 12.5766 0.899332 -21.2766 23.79 6.42238 -0.0 0.0 -0.0 -4.84977 24.4047 -3.71205 7.57803 -19.1533 69.4614 2.097 -46.0844 0.892027 -11.999 -0.573821 1.42001 2.25419 -15.2689 8.65475 -0.0 0.0 -0.0 12.2489 24.4658 -24.1167 -13.9205 23.0083 -66.2428 0.407079 11.4013 -0.0406368 64.0408 2.14658 7.46779 0.616328 -28.2333 -14.5209 0.0 0.0 0.0 -14.5622 30.1345 4.77199 -31.2518 -0.00591302 4.73704 30.8168 -7.51366 -4.08804 -21.536 0.0 0.0 -0.0 0.0 -0.0 31.6308 38.0715 -10.7176 -19.5916 -0.300275 -2.97686 32.6825 -16.4722 4.2403 -14.2641 0.0 0.0 0.0 0.0 0.0 
2630.33736504 741.867 -1500.69081598 14.8136020735 71.7462298418 -21.5963796403 -0.572481 0.610053 3.21304 -0.566829 0.404474 3.2453 -0.539812 -0.317445 3.25495 -0.554539 0.200316 3.26424 -18.3474 13.649 5.24754 -18.9837 23.4764 10.371 -0.0 0.0 -0.0 -4.95564 23.443 -4.10511 2.75532 -17.4658 70.3921 1.44852 -35.6593 0.465918 -11.8466 -0.564683 1.40277 2.27014 -13.3624 9.63412 -0.0 0.0 -0.0 13.836 26.6878 -27.5333 -16.9382 22.5802 -64.8078 0.254151 7.1759 -0.0159362 63.5997 2.10467 7.42978 0.796199 -27.7185 -15.3833 0.0 0.0 0.0 -13.4997 27.289 3.54161 -38.1851 -0.355359 5.74252 26.2321 -6.86505 -3.56881 -22.2036 0.0 0.0 -0.0 0.0 -0.0 29.0764 38.9885 -9.38587 -29.934 -0.0465874 -4.54163 35.876 -19.8765 4.62716 -10.5654 0.0 0.0 0.0 0.0 0.0 
2630.69494552 741.867 -1502.86657734 14.2681302402 71.0381792473 -21.020831933 -0.572481 0.610053 3.21304 -0.566829 0.404474 3.2453 -0.539812 -0.317445 3.25495 -0.554539 0.200316 3.26424 -18.3474 13.649 5.24754 -18.9837 23.4764 10.371 -0.0 0.0 -0.0 -4.95564 23.443 -4.10511 2.75532 -17.4658 70.3921 1.44852 -35.6593 0.465918 -11.8466 -0.564683 1.40277 2.27014 -13.3624 9.63412 -0.0 0.0 -0.0 13.836 26.6878 -27.5333 -16.9382 22.5802 -64.8078 0.254151 7.1759 -0.0159362 63.5997 2.10467 7.42978 0.796199 -27.7185 -15.3833 0.0 0.0 0.0 -13.4997 27.289 3.54161 -38.1851 -0.355359 5.74252 26.2321 -6.86505 -3.56881 -22.2036 0.0 0.0 -0.0 0.0 -0.0 29.0764 38.9885 -9.38587 -29.934 -0.0465874 -4.54163 35.876 -19.8765 4.62716 -10.5654 0.0 0.0 0.0 0.0 0.0 
2614.16242104 743.366 -1509.68984681 13.955539215 71.8258337676 -20.6423399344 -0.467121 0.629407 3.19709 -0.461535 0.424801 3.23061 -0.433646 -0.288333 3.24562 -0.448272 0.227592 3.25044 -16.9437 14.4707 6.26949 -17.499 24.3141 11.3011 -0.0 0.0 -0.0 -5.48115 23.1286 -4.92486 2.10102 -16.917 71.5307 1.37293 -34.2181 0.422625 -11.7786 -0.560627 1.39508 2.29152 -12.926 9.97779 -0.0 0.0 -0.0 13.8697 26.5323 -27.6319 -14.5316 24.4846 -64.5245 0.199747 5.6511 -0.00985855 63.5568 2.10061 7.42607 0.666382 -28.9884 -15.0346 0.0 0.0 0.0 -13.3914 25.0981 2.8638 -36.672 -0.268732 5.52675 24.2186 -7.14378 -3.33655 -23.0624 0.0 0.0 -0.0 0.0 -0.0 29.8964 38.5547 -10.576 -32.2697 0.0495427 -4.88715 36.5914 -20.6493 4.71548 -9.73182 0.0 0.0 0.0 0.0 0.0 
2615.41030866 743.366 -1515.66072723 12.7286162524 70.0377153335 -19.3443516129 -0.467121 0.629407 3.19709 -0.461535 0.424801 3.23061 -0.433646 -0.288333 3.24562 -0.448272 0.227592 3.25044 -16.9437 14.4707 6.26949 -17.499 24.3141 11.3011 -0.0 0.0 -0.0 -5.48115 23.1286 -4.92486 2.10102 -16.917 71.5307 1.37293 -34.2181 0.422625 -11.7786 -0.560627 1.39508 2.29152 -12.926 9.97779 -0.0 0.0 -0.0 13.8697 26.5323 -27.6319 -14.5316 24.4846 -64.5245 0.199747 5.6511 -0.00985855 63.5568 2.10061 7.42607 0.666382 -28.9884 -15.0346 0.0 0.0 0.0 -13.3914 25.0981 2.8638 -36.672 -0.268732 5.52675 24.2186 -7.14378 -3.33655 -23.0624 0.0 0.0 -0.0 0.0 -0.0 29.8964 38.5547 -10.576 -32.2697 0.0495427 -4.88715 36.5914 -20.6493 4.71548 -9.73182 0.0 0.0 0.0 0.0 0.0 
